<svg xmlns="http://www.w3.org/2000/svg" viewBox="0 0 1200 360"><rect width="1200" height="360" fill="#0E2340"/><g transform="translate(263.97 242.98)"><path transform="translate(0 0)" fill="#F4EFE3" d="M96.27 -116.11L96.27 -116.11Q95.61 -107.91 95.37 -100.29Q95.12 -92.66 95.12 -88.56L95.12 -88.56Q95.12 -85.12 95.28 -82Q95.45 -78.88 95.61 -76.75L95.61 -76.75L91.84 -76.75Q89.05 -90.36 84.13 -98.15Q79.21 -105.94 73.39 -109.14Q67.57 -112.34 61.66 -112.34L61.66 -112.34L59.53 -112.34Q55.27 -112.34 53.14 -111.6Q51 -110.86 50.27 -108.73Q49.53 -106.6 49.53 -102.01L49.53 -102.01L49.53 -60.02L51.17 -60.02Q55.76 -60.02 59.53 -61.99Q63.3 -63.96 66.17 -67.24Q69.04 -70.52 70.93 -74.29Q72.82 -78.06 73.47 -81.67L73.47 -81.67L77.24 -81.67Q76.59 -72.32 76.67 -67.4Q76.75 -62.48 76.75 -58.38Q76.75 -54.28 76.92 -49.36Q77.08 -44.44 77.74 -35.1L77.74 -35.1L73.96 -35.1Q72.98 -41.16 69.95 -46.08Q66.91 -51 62.16 -53.87Q57.4 -56.74 51.17 -56.74L51.17 -56.74L49.53 -56.74L49.53 -19.02Q49.53 -12.46 50.92 -9.1Q52.32 -5.74 56.25 -4.76Q60.19 -3.77 67.73 -3.77L67.73 -3.77L67.73 0Q62.16 -0.16 53.14 -0.33Q44.12 -0.49 33.95 -0.49L33.95 -0.49Q26.4 -0.49 18.86 -0.33Q11.32 -0.16 4.59 0L4.59 0L4.59 -3.28Q9.68 -3.61 12.14 -4.59Q14.6 -5.58 15.42 -8.53Q16.24 -11.48 16.24 -17.38L16.24 -17.38L16.24 -98.73Q16.24 -104.8 15.42 -107.67Q14.6 -110.54 12.05 -111.6Q9.51 -112.67 4.59 -112.83L4.59 -112.83L4.59 -116.11Q11.81 -115.95 19.93 -115.87Q28.04 -115.78 36 -115.7Q43.95 -115.62 50.84 -115.62L50.84 -115.62L61.99 -115.62Q69.54 -115.62 79.13 -115.7Q88.72 -115.78 96.27 -116.11"/><path transform="translate(0 0)" fill="#F4EFE3" d="M146.94 -87.41L146.94 -87.41Q161.38 -87.41 169.66 -78.97Q177.94 -70.52 177.94 -50.68L177.94 -50.68L135.63 -50.68Q135.46 -49.53 135.46 -48.22L135.46 -48.22L135.46 -44.77Q135.46 -33.29 138.33 -26.9Q141.2 -20.5 145.55 -18.04Q149.9 -15.58 154.32 -15.58L154.32 -15.58Q156.62 -15.58 159.82 -16.24Q163.02 -16.89 166.79 -19.27Q170.56 -21.65 174.17 -26.57L174.17 -26.57L176.96 -25.58Q174.99 -19.02 170.64 -12.55Q166.3 -6.07 159.41 -1.89Q152.52 2.3 142.68 2.3L142.68 2.3Q132.18 2.3 123.57 -1.97Q114.96 -6.23 109.88 -16.07Q104.8 -25.91 104.8 -42.48L104.8 -42.48Q104.8 -58.22 110.37 -68.14Q115.95 -78.06 125.54 -82.74Q135.14 -87.41 146.94 -87.41M134.97 -53.79L134.97 -53.79L154 -53.79Q154.16 -61.83 153.34 -68.63Q152.52 -75.44 150.72 -79.54Q148.91 -83.64 145.8 -83.64L145.8 -83.64Q141.37 -83.64 138.58 -76.75L138.58 -76.75Q135.79 -69.86 134.97 -53.79"/><path transform="translate(0 0)" fill="#F4EFE3" d="M248.79 -87.41L248.79 -87.41Q256.33 -87.41 260.68 -85.53Q265.02 -83.64 267.32 -80.85L267.32 -80.85Q269.78 -77.9 270.93 -73.14L270.93 -73.14Q275.19 -81.51 282.24 -84.46L282.24 -84.46Q289.3 -87.41 298.15 -87.41L298.15 -87.41Q305.7 -87.41 310.04 -85.53Q314.39 -83.64 316.68 -80.85L316.68 -80.85Q319.14 -77.9 320.29 -72.98Q321.44 -68.06 321.44 -59.7L321.44 -59.7L321.44 -15.25Q321.44 -8.36 323.49 -5.9Q325.54 -3.44 330.62 -3.44L330.62 -3.44L330.62 0Q327.34 -0.16 320.7 -0.41Q314.06 -0.66 307.66 -0.66Q301.27 -0.66 295.2 -0.41Q289.13 -0.16 286.02 0L286.02 0L286.02 -3.44Q289.3 -3.44 290.61 -5.9Q291.92 -8.36 291.92 -15.25L291.92 -15.25L291.92 -68.55Q291.92 -72 291.1 -74.29Q290.28 -76.59 288.56 -77.74Q286.84 -78.88 283.88 -78.88Q280.93 -78.88 278.23 -77.08Q275.52 -75.28 273.88 -72.49L273.88 -72.49Q272.24 -69.86 271.75 -66.75L271.75 -66.75Q272.08 -63.63 272.08 -59.7L272.08 -59.7L272.08 -15.25Q272.08 -8.36 273.72 -5.9Q275.36 -3.44 279.62 -3.44L279.62 -3.44L279.62 0Q276.5 -0.16 270.35 -0.41Q264.2 -0.66 258.3 -0.66L258.3 -0.66Q251.9 -0.66 245.84 -0.41Q239.77 -0.16 236.65 0L236.65 0L236.65 -3.44Q239.93 -3.44 241.24 -5.9Q242.56 -8.36 242.56 -15.25L242.56 -15.25L242.56 -68.55Q242.56 -72 241.9 -74.29Q241.24 -76.59 239.85 -77.74Q238.46 -78.88 236.16 -78.88L236.16 -78.88Q233.21 -78.88 230.5 -77.41Q227.8 -75.93 226.07 -73.23Q224.35 -70.52 224.35 -67.08L224.35 -67.08L224.35 -15.25Q224.35 -8.36 225.66 -5.9Q226.98 -3.44 230.26 -3.44L230.26 -3.44L230.26 0Q227.47 -0.16 221.81 -0.41Q216.15 -0.66 210.25 -0.66L210.25 -0.66Q203.36 -0.66 196.31 -0.41Q189.26 -0.16 185.65 0L185.65 0L185.65 -3.44Q190.73 -3.44 192.78 -5.9Q194.83 -8.36 194.83 -15.25L194.83 -15.25L194.83 -67.24Q194.83 -74.62 192.86 -78.15Q190.9 -81.67 185.65 -81.67L185.65 -81.67L185.65 -85.12Q190.9 -84.62 195.82 -84.62L195.82 -84.62Q204.02 -84.62 211.15 -85.2Q218.28 -85.77 224.35 -86.92L224.35 -86.92L224.35 -75.11Q228.12 -81.67 234.36 -84.54Q240.59 -87.41 248.79 -87.41"/><path transform="translate(0 0)" fill="#F4EFE3" d="M358.83 -128.25L358.83 -128.25Q367.36 -128.25 372.03 -124.72Q376.71 -121.2 376.71 -114.14L376.71 -114.14Q376.71 -107.09 372.03 -103.57Q367.36 -100.04 358.83 -100.04L358.83 -100.04Q350.3 -100.04 345.63 -103.57Q340.96 -107.09 340.96 -114.14L340.96 -114.14Q340.96 -121.2 345.63 -124.72Q350.3 -128.25 358.83 -128.25M374.58 -86.92L374.58 -86.92L374.58 -15.25Q374.58 -8.36 376.63 -5.9Q378.68 -3.44 383.76 -3.44L383.76 -3.44L383.76 0Q380.48 -0.16 373.92 -0.41Q367.36 -0.66 360.47 -0.66L360.47 -0.66Q353.58 -0.66 346.53 -0.41Q339.48 -0.16 335.87 0L335.87 0L335.87 -3.44Q340.96 -3.44 343.01 -5.9Q345.06 -8.36 345.06 -15.25L345.06 -15.25L345.06 -67.24Q345.06 -74.62 343.09 -78.15Q341.12 -81.67 335.87 -81.67L335.87 -81.67L335.87 -85.12Q341.12 -84.62 346.04 -84.62L346.04 -84.62Q354.24 -84.62 361.37 -85.2Q368.51 -85.77 374.58 -86.92"/><path transform="translate(0 0)" fill="#F4EFE3" d="M474.62 -128.25L474.62 -128.25L474.62 -18.04Q474.62 -10.66 476.67 -7.13Q478.72 -3.61 483.8 -3.61L483.8 -3.61L483.8 -0.16Q478.72 -0.66 473.63 -0.66L473.63 -0.66Q465.43 -0.66 458.38 -0.16Q451.33 0.33 445.1 1.64L445.1 1.64L445.1 -10Q441.82 -3.77 437.06 -0.74Q432.3 2.3 425.09 2.3L425.09 2.3Q415.74 2.3 408.11 -2.38Q400.49 -7.05 396.06 -17.06Q391.63 -27.06 391.63 -43.13L391.63 -43.13Q391.63 -58.06 396.14 -67.81Q400.65 -77.57 408.85 -82.49Q417.05 -87.41 428.04 -87.41L428.04 -87.41Q435.26 -87.41 440.18 -85.77L440.18 -85.77Q442.8 -84.79 445.1 -83.31L445.1 -83.31L445.1 -108.57Q445.1 -115.95 443.13 -119.47Q441.16 -123 435.91 -123L435.91 -123L435.91 -126.44Q441.16 -125.95 446.08 -125.95L446.08 -125.95Q454.28 -125.95 461.41 -126.53Q468.55 -127.1 474.62 -128.25M445.1 -18.04L445.1 -79.87Q443.78 -80.52 442.31 -81.18L442.31 -81.18Q439.68 -82 437.39 -82L437.39 -82Q429.84 -82 426.07 -72.32Q422.3 -62.65 422.3 -42.64L422.3 -42.64Q422.3 -28.21 423.78 -20.25Q425.25 -12.3 427.79 -9.27Q430.34 -6.23 433.29 -6.23L433.29 -6.23Q437.88 -6.23 441.49 -9.59Q445.1 -12.96 445.1 -18.04L445.1 -18.04"/><path transform="translate(0 0)" fill="#F4EFE3" d="M512.01 1.15L512.01 1.15Q504.3 1.15 499.38 -1.8Q494.46 -4.76 492.25 -9.51Q490.03 -14.27 490.03 -19.52L490.03 -19.52Q490.03 -26.4 493.15 -30.75Q496.26 -35.1 501.27 -37.8Q506.27 -40.51 511.84 -42.31Q517.42 -44.12 522.42 -45.84Q527.42 -47.56 530.54 -49.94Q533.66 -52.32 533.66 -56.09L533.66 -56.09L533.66 -70.68Q533.66 -73.31 532.75 -76.42Q531.85 -79.54 529.39 -81.84Q526.93 -84.13 522.01 -84.13L522.01 -84.13Q519.39 -84.13 517.01 -83.39Q514.63 -82.66 512.83 -81.34L512.83 -81.34Q518.57 -79.21 521.19 -75.36Q523.82 -71.5 523.82 -66.91L523.82 -66.91Q523.82 -60.35 519.22 -56.58Q514.63 -52.81 508.4 -52.81L508.4 -52.81Q501.84 -52.81 498.23 -56.91Q494.62 -61.01 494.62 -67.08L494.62 -67.08Q494.62 -72.16 497.17 -75.69Q499.71 -79.21 504.79 -82.16L504.79 -82.16Q509.71 -84.95 516.6 -86.18Q523.49 -87.41 531.03 -87.41L531.03 -87.41Q539.07 -87.41 545.96 -85.85Q552.84 -84.3 557.76 -79.21L557.76 -79.21Q561.21 -75.6 562.19 -70.19Q563.18 -64.78 563.18 -56.25L563.18 -56.25L563.18 -12.3Q563.18 -8.2 563.75 -6.72Q564.32 -5.25 565.8 -5.25L565.8 -5.25Q567.11 -5.25 568.34 -6.07Q569.57 -6.89 570.72 -7.71L570.72 -7.71L572.36 -4.92Q568.75 -1.8 563.42 -0.33Q558.09 1.15 552.19 1.15L552.19 1.15Q545.14 1.15 541.28 -0.57Q537.43 -2.3 535.87 -5.17Q534.31 -8.04 534.15 -11.32L534.15 -11.32Q530.7 -5.9 525.54 -2.38Q520.37 1.15 512.01 1.15M527.59 -11.97L527.59 -11.97Q529.39 -11.97 530.79 -12.55Q532.18 -13.12 533.66 -14.76L533.66 -14.76L533.66 -49.36Q532.51 -47.23 530.62 -45.18Q528.74 -43.13 526.77 -41Q524.8 -38.87 523.08 -36.41Q521.36 -33.95 520.29 -30.75Q519.22 -27.55 519.22 -23.29L519.22 -23.29Q519.22 -17.06 521.6 -14.51Q523.98 -11.97 527.59 -11.97"/><path transform="translate(587.51 -103.25)" fill="#CFAB5E" d="M18.57 0L2.82 0L2.82 -21L18.15 -21L18.15 -17.73L6.72 -17.73L6.72 -12.27L16.86 -12.27L16.86 -9.06L6.72 -9.06L6.72 -3.27L18.57 -3.27L18.57 0"/><path transform="translate(587.51 -103.25)" fill="#CFAB5E" d="M40.1 0L30.92 0L30.92 -21L40.1 -21Q43.52 -21 46.1 -19.68Q48.68 -18.36 50.12 -16.02Q51.56 -13.68 51.56 -10.5L51.56 -10.5Q51.56 -7.35 50.12 -4.99Q48.68 -2.64 46.1 -1.32Q43.52 0 40.1 0L40.1 0M34.82 -17.7L34.82 -3.3L39.92 -3.3Q42.26 -3.3 44 -4.2Q45.74 -5.1 46.69 -6.72Q47.63 -8.34 47.63 -10.5L47.63 -10.5Q47.63 -12.69 46.69 -14.29Q45.74 -15.9 44 -16.8Q42.26 -17.7 39.92 -17.7L39.92 -17.7L34.82 -17.7"/><path transform="translate(587.51 -103.25)" fill="#CFAB5E" d="M72.73 0.3L72.73 0.3Q68.41 0.3 65.96 -2.13Q63.52 -4.56 63.52 -9.15L63.52 -9.15L63.52 -21L67.42 -21L67.42 -9.3Q67.42 -6.06 68.82 -4.59Q70.21 -3.12 72.76 -3.12L72.76 -3.12Q75.31 -3.12 76.69 -4.59Q78.07 -6.06 78.07 -9.3L78.07 -9.3L78.07 -21L81.91 -21L81.91 -9.15Q81.91 -4.56 79.47 -2.13Q77.02 0.3 72.73 0.3"/></g></svg>
