<svg xmlns="http://www.w3.org/2000/svg" viewBox="0 0 512 512"><rect width="512" height="512" fill="#0E2340"/><path transform="translate(135.85 331)" fill="#F4EFE3" d="M81.9 0L47.7 0L47.7 -119.7L8.1 -119.7L8.1 -148.2L47.7 -148.2L47.7 -178.2Q47.7 -192.9 56.25 -201.45Q64.8 -210 78.9 -210L78.9 -210L117.3 -210L117.3 -181.5L90.3 -181.5Q81.9 -181.5 81.9 -172.5L81.9 -172.5L81.9 -148.2L122.7 -148.2L122.7 -119.7L81.9 -119.7L81.9 0"/><path transform="translate(135.85 331)" fill="#CFAB5E" d="M155.7 60L121.5 60L209.7 -210L243.9 -210L155.7 60"/></svg>
