<svg xmlns="http://www.w3.org/2000/svg" viewBox="0 0 1200 360"><rect width="1200" height="360" fill="#fff"/><path d="M55.750000000000014 55.500000000000014H274.25V170.5Q274.25 274 165 325.75Q55.750000000000014 274 55.750000000000014 170.5Z" fill="none" stroke="#B8923A" stroke-width="5.75"/><path transform="translate(115.2 234.7)" fill="#0E2340" d="M80.04 -77.28L81.77 -77.28L81.77 -41.74L80.04 -41.74L80.04 -43.64Q80.04 -48.99 76.42 -52.61Q72.8 -56.24 67.45 -56.24L67.45 -56.24L42.61 -56.24L42.61 -12.59Q42.78 -8.11 45.97 -4.92Q49.16 -1.72 53.65 -1.72L53.65 -1.72L55.89 -1.72L55.89 0L8.28 0L8.28 -1.72L10.52 -1.72Q15.01 -1.72 18.2 -4.92Q21.39 -8.11 21.56 -12.59L21.56 -12.59L21.56 -108.16Q21.39 -112.64 18.2 -115.83Q15.01 -119.02 10.52 -119.02L10.52 -119.02L8.28 -119.02L8.28 -120.75L68.83 -120.75Q72.62 -120.75 76.85 -121.27Q81.08 -121.79 84.7 -122.47Q88.32 -123.16 89.87 -123.85L89.87 -123.85L89.87 -97.81L88.15 -97.81L88.15 -100.05Q88.15 -106.26 84.27 -110.14Q80.39 -114.02 74 -114.02L74 -114.02L42.61 -114.02L42.61 -62.79L67.45 -62.79Q72.8 -62.96 76.42 -66.59Q80.04 -70.21 80.04 -75.56L80.04 -75.56L80.04 -77.28"/><path transform="translate(310.0 222.0)" fill="#0E2340" d="M4.88 0L4.88 0Q4.49 0 4.49 -0.79Q4.49 -1.58 4.88 -1.58L4.88 -1.58Q9.5 -1.58 11.75 -2.24Q13.99 -2.9 14.78 -4.88Q15.58 -6.86 15.58 -10.69L15.58 -10.69L15.58 -71.81Q15.58 -75.64 14.85 -77.55Q14.12 -79.46 12.01 -80.19Q9.9 -80.92 5.54 -80.92L5.54 -80.92Q5.15 -80.92 5.15 -81.71Q5.15 -82.5 5.54 -82.5L5.54 -82.5L60.46 -82.5Q61.78 -82.5 61.78 -81.31L61.78 -81.31L62.04 -64.15Q62.04 -63.89 61.38 -63.82Q60.72 -63.76 60.46 -64.15L60.46 -64.15Q59 -71.68 54.38 -75.37Q49.76 -79.07 42.24 -79.07L42.24 -79.07L36.83 -79.07Q31.94 -79.07 30.03 -77.35Q28.12 -75.64 28.12 -71.68L28.12 -71.68L28.12 -43.03L38.94 -43.03Q46.46 -43.03 50.09 -45.61Q53.72 -48.18 53.72 -52.93L53.72 -52.93Q53.72 -53.2 54.52 -53.2Q55.31 -53.2 55.31 -52.93L55.31 -52.93Q55.31 -48.58 55.24 -46.2Q55.18 -43.82 55.18 -41.32L55.18 -41.32Q55.18 -38.15 55.31 -35.05Q55.44 -31.94 55.44 -28.38L55.44 -28.38Q55.44 -27.98 54.65 -27.98Q53.86 -27.98 53.86 -28.38L53.86 -28.38Q53.86 -33.79 50.09 -36.7Q46.33 -39.6 38.68 -39.6L38.68 -39.6L28.12 -39.6L28.12 -11.22Q28.12 -7.26 29.17 -5.21Q30.23 -3.17 33.4 -2.38Q36.56 -1.58 42.9 -1.58L42.9 -1.58Q43.16 -1.58 43.16 -0.79Q43.16 0 42.9 0L42.9 0Q38.41 0 33.26 -0.13Q28.12 -0.26 21.52 -0.26L21.52 -0.26Q16.9 -0.26 12.54 -0.13Q8.18 0 4.88 0M98.6 1.58L98.6 1.58Q90.29 1.58 84.48 -1.98Q78.67 -5.54 75.7 -11.42Q72.73 -17.29 72.73 -23.89L72.73 -23.89Q72.73 -31.81 76.56 -38.15Q80.39 -44.48 86.99 -48.31Q93.59 -52.14 101.9 -52.14L101.9 -52.14Q109.69 -52.14 114.05 -48.44Q118.4 -44.75 118.4 -36.96L118.4 -36.96Q118.4 -35.24 118.14 -34.19Q117.88 -33.13 116.95 -33.13L116.95 -33.13L109.82 -33.13L84.61 -33Q84.48 -31.28 84.48 -29.44L84.48 -29.44Q84.48 -21.78 86.86 -16.17Q89.23 -10.56 93.85 -7.39Q98.47 -4.22 105.2 -4.22L105.2 -4.22Q109.3 -4.22 112.07 -5.35Q114.84 -6.47 118.01 -8.18L118.01 -8.18Q118.01 -8.18 118.14 -8.32L118.14 -8.32Q118.4 -8.32 118.8 -7.92L118.8 -7.92Q119.2 -7.39 118.93 -7L118.93 -7Q114.18 -2.38 109.23 -0.4Q104.28 1.58 98.6 1.58M84.88 -35.38L106.13 -35.77Q106.13 -41.58 104.41 -45.14L104.41 -45.14Q102.17 -49.5 97.15 -49.5L97.15 -49.5Q91.21 -49.5 87.91 -44.09L87.91 -44.09Q85.67 -40.39 84.88 -35.38L84.88 -35.38M196.81 0L196.81 0Q196.42 0 196.42 -0.79Q196.42 -1.58 196.81 -1.58L196.81 -1.58Q201.17 -1.58 202.75 -3.43Q204.34 -5.28 204.34 -10.69L204.34 -10.69L204.34 -30.36Q204.34 -44.88 193.91 -44.88L193.91 -44.88Q189.55 -44.88 185.46 -42.5L185.46 -42.5Q182.69 -40.92 180.44 -38.41L180.44 -38.41Q180.44 -37.75 180.44 -37.22L180.44 -37.22L180.44 -10.69Q180.44 -5.28 182.03 -3.43Q183.61 -1.58 188.1 -1.58L188.1 -1.58Q188.5 -1.58 188.5 -0.79Q188.5 0 188.1 0L188.1 0Q185.46 0 182.16 -0.13Q178.86 -0.26 175.16 -0.26L175.16 -0.26Q171.6 -0.26 168.23 -0.13Q164.87 0 162.36 0L162.36 0Q161.96 0 161.96 -0.79Q161.96 -1.58 162.36 -1.58L162.36 -1.58Q166.85 -1.58 168.37 -3.43Q169.88 -5.28 169.88 -10.69L169.88 -10.69L169.88 -30.36Q169.88 -44.88 159.46 -44.88L159.46 -44.88Q155.23 -44.88 151.14 -42.5L151.14 -42.5Q148.5 -41.05 146.52 -38.94L146.52 -38.94L146.52 -10.69Q146.52 -5.28 148.04 -3.43Q149.56 -1.58 154.04 -1.58L154.04 -1.58Q154.44 -1.58 154.44 -0.79Q154.44 0 154.04 0L154.04 0Q151.54 0 148.24 -0.13Q144.94 -0.26 141.24 -0.26L141.24 -0.26Q137.68 -0.26 134.31 -0.13Q130.94 0 128.44 0L128.44 0Q128.04 0 128.04 -0.79Q128.04 -1.58 128.44 -1.58L128.44 -1.58Q132.92 -1.58 134.38 -3.43Q135.83 -5.28 135.83 -10.69L135.83 -10.69L135.83 -35.9Q135.83 -40.13 134.9 -42.11Q133.98 -44.09 131.6 -44.09L131.6 -44.09Q130.42 -44.09 128.7 -43.56Q126.98 -43.03 125 -42.11L125 -42.11Q124.48 -41.98 124.21 -42.77L124.21 -42.77Q123.95 -43.3 124.08 -43.43L124.08 -43.43Q124.08 -43.56 124.21 -43.56L124.21 -43.56L141.5 -52.01Q142.16 -52.27 142.43 -52.27L142.43 -52.27Q143.75 -52.27 145.2 -49.24L145.2 -49.24Q146.39 -46.6 146.52 -41.58L146.52 -41.58Q150.08 -45.94 154.04 -48.58L154.04 -48.58Q159.59 -52.4 165.92 -52.4L165.92 -52.4Q172.92 -52.4 176.75 -48.58L176.75 -48.58Q179.52 -45.67 180.18 -40.66L180.18 -40.66Q184.14 -45.67 188.5 -48.58L188.5 -48.58Q194.04 -52.4 200.38 -52.4L200.38 -52.4Q207.24 -52.4 211.07 -48.44Q214.9 -44.48 214.9 -36.17L214.9 -36.17L214.9 -10.69Q214.9 -5.28 216.41 -3.43Q217.93 -1.58 222.42 -1.58L222.42 -1.58Q222.95 -1.58 222.95 -0.79Q222.95 0 222.42 0L222.42 0Q219.91 0 216.61 -0.13Q213.31 -0.26 209.62 -0.26Q205.92 -0.26 202.62 -0.13Q199.32 0 196.81 0M230.74 0L230.74 0Q230.34 0 230.34 -0.79Q230.34 -1.58 230.74 -1.58L230.74 -1.58Q235.22 -1.58 236.74 -3.43Q238.26 -5.28 238.26 -10.69L238.26 -10.69L238.26 -34.72Q238.26 -39.2 237.34 -41.25Q236.41 -43.3 234.17 -43.3L234.17 -43.3Q233.11 -43.3 231.79 -42.9Q230.47 -42.5 228.89 -41.71L228.89 -41.71Q228.36 -41.58 228.1 -42.37L228.1 -42.37Q227.83 -43.03 227.96 -43.16L227.96 -43.16Q227.96 -43.3 228.1 -43.3L228.1 -43.3L247.1 -52.14Q247.37 -52.27 247.5 -52.27L247.5 -52.27Q248.03 -52.27 248.62 -51.68Q249.22 -51.08 249.22 -50.69L249.22 -50.69Q249.22 -49.24 249.08 -45.41Q248.95 -41.58 248.95 -34.85L248.95 -34.85L248.95 -10.69Q248.95 -5.28 250.47 -3.43Q251.99 -1.58 256.48 -1.58L256.48 -1.58Q256.87 -1.58 256.87 -0.79Q256.87 0 256.48 0L256.48 0Q253.84 0 250.54 -0.13Q247.24 -0.26 243.54 -0.26L243.54 -0.26Q239.98 -0.26 236.61 -0.13Q233.24 0 230.74 0M242.88 -66.13L242.88 -66.13Q239.45 -66.13 237.53 -67.98Q235.62 -69.83 235.62 -73.26L235.62 -73.26Q235.62 -76.43 237.53 -78.28Q239.45 -80.12 242.88 -80.12L242.88 -80.12Q246.18 -80.12 247.96 -78.28Q249.74 -76.43 249.74 -73.26L249.74 -73.26Q249.74 -66.13 242.88 -66.13M285.12 1.72L285.12 1.72Q279.58 1.72 274.82 -1.39Q270.07 -4.49 267.23 -10.16Q264.4 -15.84 264.4 -23.89L264.4 -23.89Q264.4 -31.68 267.3 -37.16Q270.2 -42.64 274.76 -46.07Q279.31 -49.5 284.59 -51.08Q289.87 -52.67 294.62 -52.67Q299.38 -52.67 303.47 -51.35L303.47 -51.35Q304.66 -50.95 305.71 -50.56L305.71 -50.56L305.71 -78.14Q305.71 -82.63 304.92 -84.74Q304.13 -86.86 301.75 -86.86L301.75 -86.86Q300.7 -86.86 299.38 -86.39Q298.06 -85.93 296.47 -85.27L296.47 -85.27Q295.94 -85.01 295.55 -85.8L295.55 -85.8Q295.28 -86.46 295.42 -86.59L295.42 -86.59Q295.42 -86.72 295.55 -86.72L295.55 -86.72L314.03 -95.57Q314.29 -95.7 314.56 -95.7L314.56 -95.7Q315.08 -95.7 315.74 -95.17Q316.4 -94.64 316.4 -94.25L316.4 -94.25L316.4 -15.05Q316.4 -10.43 317.33 -8.51Q318.25 -6.6 320.5 -6.6L320.5 -6.6Q321.55 -6.6 323.07 -7Q324.59 -7.39 326.44 -8.18L326.44 -8.18Q326.57 -8.32 326.7 -8.32L326.7 -8.32Q326.96 -8.32 327.23 -7.79L327.23 -7.79Q327.62 -7 327.23 -6.73L327.23 -6.73L310.33 1.45Q309.94 1.58 309.54 1.58L309.54 1.58Q308.09 1.58 306.9 -1.58L306.9 -1.58Q305.98 -4.09 305.71 -8.32L305.71 -8.32Q304.92 -7.52 304.13 -6.73L304.13 -6.73Q300.3 -3.17 295.61 -0.73Q290.93 1.72 285.12 1.72M305.71 -10.82L305.71 -42.24Q303.86 -44.88 301.75 -46.6L301.75 -46.6Q297.92 -49.5 292.12 -49.5L292.12 -49.5Q284.86 -49.5 280.57 -44.42Q276.28 -39.34 276.28 -27.98L276.28 -27.98Q276.28 -20.46 278.26 -15.11Q280.24 -9.77 283.8 -6.93Q287.36 -4.09 291.72 -4.09L291.72 -4.09Q297.13 -4.09 301.36 -7.13L301.36 -7.13Q303.6 -8.71 305.71 -10.69L305.71 -10.69Q305.71 -10.69 305.71 -10.82L305.71 -10.82M382.93 -5.68L369.34 0.79Q368.81 1.06 368.15 1.06L368.15 1.06Q366.04 1.06 363.92 -1.98L363.92 -1.98Q362.47 -4.09 362.08 -7.39L362.08 -7.39L356 -3.17Q352.97 -1.06 350.39 -0.07Q347.82 0.92 344.52 0.92L344.52 0.92Q338.98 0.92 336.27 -1.72Q333.56 -4.36 333.56 -8.45L333.56 -8.45Q333.56 -12.14 335.54 -14.45Q337.52 -16.76 341.09 -18.28Q344.65 -19.8 349.01 -21.38L349.01 -21.38L361.81 -26.14L361.81 -34.06Q361.81 -42.37 360.16 -46.07Q358.51 -49.76 354.95 -49.76L354.95 -49.76Q351.65 -49.76 349.87 -47.85Q348.08 -45.94 347.29 -43.49Q346.5 -41.05 346.37 -39.34L346.37 -39.34Q345.97 -36.04 344.32 -34.32Q342.67 -32.6 339.64 -32.6Q336.6 -32.6 335.28 -33.99Q333.96 -35.38 333.96 -37.22L333.96 -37.22Q333.96 -40.13 336.67 -42.83Q339.37 -45.54 343.53 -47.65Q347.69 -49.76 352.18 -51.02Q356.66 -52.27 360.1 -52.27L360.1 -52.27Q365.51 -52.27 369.01 -48.84Q372.5 -45.41 372.5 -38.02L372.5 -38.02L372.5 -14.26Q372.5 -10.16 373.82 -8.05Q375.14 -5.94 377.65 -5.94L377.65 -5.94Q379.76 -5.94 382.4 -7.13L382.4 -7.13Q382.67 -7.26 382.93 -7.13L382.93 -7.13Q383.2 -7 383.33 -6.73L383.33 -6.73Q383.59 -5.94 382.93 -5.68L382.93 -5.68M358.12 -7L361.81 -9.5Q361.81 -10.16 361.81 -10.82L361.81 -10.82L361.81 -23.89L353.89 -20.59Q352.31 -20.06 350.46 -19.07Q348.61 -18.08 347.36 -16.5Q346.1 -14.92 346.1 -12.28L346.1 -12.28Q346.1 -9.11 348.22 -7.19Q350.33 -5.28 352.97 -5.28L352.97 -5.28Q354.16 -5.28 355.34 -5.61Q356.53 -5.94 358.12 -7L358.12 -7"/><path transform="translate(710.9 222.0)" fill="#B8923A" d="M18.57 0L2.82 0L2.82 -21L18.15 -21L18.15 -17.73L6.72 -17.73L6.72 -12.27L16.86 -12.27L16.86 -9.06L6.72 -9.06L6.72 -3.27L18.57 -3.27L18.57 0M44.1 0L34.92 0L34.92 -21L44.1 -21Q47.52 -21 50.1 -19.68Q52.68 -18.36 54.12 -16.02Q55.56 -13.68 55.56 -10.5L55.56 -10.5Q55.56 -7.35 54.12 -4.99Q52.68 -2.64 50.1 -1.32Q47.52 0 44.1 0L44.1 0M38.82 -17.7L38.82 -3.3L43.92 -3.3Q46.26 -3.3 48 -4.2Q49.74 -5.1 50.68 -6.72Q51.63 -8.34 51.63 -10.5L51.63 -10.5Q51.63 -12.69 50.68 -14.29Q49.74 -15.9 48 -16.8Q46.26 -17.7 43.92 -17.7L43.92 -17.7L38.82 -17.7M80.73 0.3L80.73 0.3Q76.41 0.3 73.96 -2.13Q71.52 -4.56 71.52 -9.15L71.52 -9.15L71.52 -21L75.42 -21L75.42 -9.3Q75.42 -6.06 76.82 -4.59Q78.21 -3.12 80.76 -3.12L80.76 -3.12Q83.31 -3.12 84.69 -4.59Q86.07 -6.06 86.07 -9.3L86.07 -9.3L86.07 -21L89.91 -21L89.91 -9.15Q89.91 -4.56 87.47 -2.13Q85.02 0.3 80.73 0.3"/></svg>
